<svg width="2521" height="1040" xmlns="http://www.w3.org/2000/svg" xmlns:xlink="http://www.w3.org/1999/xlink" xml:space="preserve" overflow="hidden"><defs><clipPath id="clip0"><rect x="511" y="94" width="2521" height="1040"/></clipPath></defs><g clip-path="url(#clip0)" transform="translate(-511 -94)"><path d="M511 267.336C511 171.605 588.605 93.9998 684.335 93.9998L2858.66 93.9998C2954.4 93.9998 3032 171.605 3032 267.336L3032 960.664C3032 1056.4 2954.4 1134 2858.66 1134L684.335 1134C588.605 1134 511 1056.4 511 960.664Z" fill="#3CB4E6" fill-rule="evenodd" fill-opacity="0.501961"/><rect x="1083" y="562" width="233" height="78.0001" fill="#E6007E"/><text fill="#FFFFFF" font-family="Arial,Arial_MSFontService,sans-serif" font-weight="400" font-size="64" transform="matrix(1 0 0 1 1135.33 624)">CH1</text><rect x="1316" y="562" width="234" height="78.0001" fill="#49B170"/><text fill="#FFFFFF" font-family="Arial,Arial_MSFontService,sans-serif" font-weight="400" font-size="64" transform="matrix(1 0 0 1 1369.21 624)">CH2</text><rect x="1550" y="562" width="234" height="78.0001" fill="#03234B"/><text fill="#FFFFFF" font-family="Arial,Arial_MSFontService,sans-serif" font-weight="400" font-size="64" transform="matrix(1 0 0 1 1603.1 624)">CH8</text><rect x="1785" y="562" width="233" height="78.0001" fill="#E6007E"/><text fill="#FFFFFF" font-family="Arial,Arial_MSFontService,sans-serif" font-weight="400" font-size="64" transform="matrix(1 0 0 1 1837.32 624)">CH1</text><rect x="2018" y="562" width="234" height="78.0001" fill="#FFD200"/><text fill="#FFFFFF" font-family="Arial,Arial_MSFontService,sans-serif" font-weight="400" font-size="64" transform="matrix(1 0 0 1 2070.87 624)">CH3</text></g></svg>