<svg width="2521" height="1039" xmlns="http://www.w3.org/2000/svg" xmlns:xlink="http://www.w3.org/1999/xlink" xml:space="preserve" overflow="hidden"><defs><clipPath id="clip0"><rect x="537" y="1212" width="2521" height="1039"/></clipPath></defs><g clip-path="url(#clip0)" transform="translate(-537 -1212)"><path d="M537 1385.17C537 1289.53 614.531 1212 710.17 1212L2884.83 1212C2980.47 1212 3058 1289.53 3058 1385.17L3058 2077.83C3058 2173.47 2980.47 2251 2884.83 2251L710.17 2251C614.531 2251 537 2173.47 537 2077.83Z" fill="#3CB4E6" fill-rule="evenodd" fill-opacity="0.501961"/><rect x="1212" y="1575" width="234" height="78" fill="#E6007E"/><text fill="#FFFFFF" font-family="Arial,Arial_MSFontService,sans-serif" font-weight="400" font-size="64" transform="matrix(1 0 0 1 1265.26 1638)">CH1</text><rect x="1446" y="1575" width="234" height="78" fill="#49B170"/><text fill="#FFFFFF" font-family="Arial,Arial_MSFontService,sans-serif" font-weight="400" font-size="64" transform="matrix(1 0 0 1 1499.15 1638)">CH2</text><rect x="1914" y="1575" width="234" height="78" fill="#03234B"/><text fill="#FFFFFF" font-family="Arial,Arial_MSFontService,sans-serif" font-weight="400" font-size="64" transform="matrix(1 0 0 1 1966.92 1638)">CH8</text><rect x="1680" y="1575" width="234" height="78" fill="#FFD200"/><text fill="#FFFFFF" font-family="Arial,Arial_MSFontService,sans-serif" font-weight="400" font-size="64" transform="matrix(1 0 0 1 1733.03 1638)">CH3</text><rect x="1914" y="1783" width="234" height="78" fill="#E6007E"/><text fill="#FFFFFF" font-family="Arial,Arial_MSFontService,sans-serif" font-weight="400" font-size="64" transform="matrix(1 0 0 1 1966.92 1846)">CH1</text><rect x="1680" y="1783" width="234" height="78" fill="#49B170"/><text fill="#FFFFFF" font-family="Arial,Arial_MSFontService,sans-serif" font-weight="400" font-size="64" transform="matrix(1 0 0 1 1733.03 1846)">CH2</text><rect x="1212" y="1783" width="234" height="78" fill="#03234B"/><text fill="#FFFFFF" font-family="Arial,Arial_MSFontService,sans-serif" font-weight="400" font-size="64" transform="matrix(1 0 0 1 1265.26 1846)">CH8</text><rect x="1446" y="1783" width="234" height="78" fill="#FFD200"/><text fill="#FFFFFF" font-family="Arial,Arial_MSFontService,sans-serif" font-weight="400" font-size="64" transform="matrix(1 0 0 1 1499.15 1846)">CH3</text><path d="M1212 1783 1212 2042.87" stroke="#3CB4E6" stroke-width="8.02083" stroke-miterlimit="8" fill="none" fill-rule="evenodd"/><path d="M1212 1393 1212 1652.87" stroke="#3CB4E6" stroke-width="8.02083" stroke-miterlimit="8" fill="none" fill-rule="evenodd"/><rect x="1212" y="1393" width="780" height="104" fill="#3CB4E6"/><text fill="#FFFFFF" font-family="Arial,Arial_MSFontService,sans-serif" font-weight="400" font-size="83" transform="matrix(1 0 0 1 1260.84 1476)">Forward</text><text fill="#FFFFFF" font-family="Arial,Arial_MSFontService,sans-serif" font-weight="400" font-size="83" transform="matrix(1 0 0 1 1586.25 1476)">sequenc</text><text fill="#FFFFFF" font-family="Arial,Arial_MSFontService,sans-serif" font-weight="400" font-size="83" transform="matrix(1 0 0 1 1897.92 1476)">e</text><rect x="1212" y="1939" width="858" height="104" fill="#3CB4E6"/><text fill="#FFFFFF" font-family="Arial,Arial_MSFontService,sans-serif" font-weight="400" font-size="83" transform="matrix(1 0 0 1 1270.03 2022)">Backwar</text><text fill="#FFFFFF" font-family="Arial,Arial_MSFontService,sans-serif" font-weight="400" font-size="83" transform="matrix(1 0 0 1 1586.28 2022)">d</text><text fill="#FFFFFF" font-family="Arial,Arial_MSFontService,sans-serif" font-weight="400" font-size="83" transform="matrix(1 0 0 1 1655.03 2022)">sequenc</text><text fill="#FFFFFF" font-family="Arial,Arial_MSFontService,sans-serif" font-weight="400" font-size="83" transform="matrix(1 0 0 1 1966.69 2022)">e</text></g></svg>