<svg width="3898" height="935" xmlns="http://www.w3.org/2000/svg" xmlns:xlink="http://www.w3.org/1999/xlink" xml:space="preserve" overflow="hidden"><g transform="translate(-251 -1238)"><rect x="1732" y="1575" width="234" height="78" fill="#E6007E"/><text fill="#FFFFFF" font-family="Arial,Arial_MSFontService,sans-serif" font-weight="400" font-size="64" transform="matrix(1 0 0 1 1785.01 1638)">CH1</text><rect x="1966" y="1575" width="234" height="78" fill="#49B170"/><text fill="#FFFFFF" font-family="Arial,Arial_MSFontService,sans-serif" font-weight="400" font-size="64" transform="matrix(1 0 0 1 2018.89 1638)">CH2</text><rect x="2434" y="1575" width="234" height="78" fill="#03234B"/><text fill="#FFFFFF" font-family="Arial,Arial_MSFontService,sans-serif" font-weight="400" font-size="64" transform="matrix(1 0 0 1 2486.66 1638)">CH8</text><rect x="2200" y="1575" width="234" height="78" fill="#FFD200"/><text fill="#FFFFFF" font-family="Arial,Arial_MSFontService,sans-serif" font-weight="400" font-size="64" transform="matrix(1 0 0 1 2252.78 1638)">CH3</text><rect x="2434" y="1783" width="234" height="78" fill="#E6007E"/><text fill="#FFFFFF" font-family="Arial,Arial_MSFontService,sans-serif" font-weight="400" font-size="64" transform="matrix(1 0 0 1 2486.66 1846)">CH1</text><rect x="2200" y="1783" width="234" height="78" fill="#49B170"/><text fill="#FFFFFF" font-family="Arial,Arial_MSFontService,sans-serif" font-weight="400" font-size="64" transform="matrix(1 0 0 1 2252.78 1846)">CH2</text><rect x="1732" y="1783" width="234" height="78" fill="#03234B"/><text fill="#FFFFFF" font-family="Arial,Arial_MSFontService,sans-serif" font-weight="400" font-size="64" transform="matrix(1 0 0 1 1785.01 1846)">CH8</text><rect x="1966" y="1783" width="234" height="78" fill="#FFD200"/><text fill="#FFFFFF" font-family="Arial,Arial_MSFontService,sans-serif" font-weight="400" font-size="64" transform="matrix(1 0 0 1 2018.89 1846)">CH3</text><path d="M1732 1783 1732 2042.87" stroke="#3CB4E6" stroke-width="8.02083" stroke-miterlimit="8" fill="none" fill-rule="evenodd"/><path d="M1732 1393 1732 1652.87" stroke="#3CB4E6" stroke-width="8.02083" stroke-miterlimit="8" fill="none" fill-rule="evenodd"/><rect x="1732" y="1393" width="780" height="104" fill="#3CB4E6"/><text fill="#FFFFFF" font-family="Arial,Arial_MSFontService,sans-serif" font-weight="400" font-size="83" transform="matrix(1 0 0 1 1780.58 1476)">Forward sequence</text><rect x="1732" y="1939" width="858" height="104" fill="#3CB4E6"/><text fill="#FFFFFF" font-family="Arial,Arial_MSFontService,sans-serif" font-weight="400" font-size="83" transform="matrix(1 0 0 1 1789.77 2022)">Backward sequence</text></g></svg>