<svg width="2521" height="1040" xmlns="http://www.w3.org/2000/svg" xmlns:xlink="http://www.w3.org/1999/xlink" xml:space="preserve" overflow="hidden"><g transform="translate(-433 -198)"><path d="M433 371.336C433 275.605 510.605 198 606.335 198L2780.66 198C2876.4 198 2954 275.605 2954 371.336L2954 1064.66C2954 1160.39 2876.4 1238 2780.66 1238L606.335 1238C510.605 1238 433 1160.39 433 1064.66Z" fill="#3CB4E6" fill-rule="evenodd" fill-opacity="0.501961"/><text fill="#03234B" font-family="Arial,Arial_MSFontService,sans-serif" font-weight="400" font-size="64" transform="matrix(1 0 0 1 713.448 585)">Conversion</text><text fill="#03234B" font-family="Arial,Arial_MSFontService,sans-serif" font-weight="400" font-size="64" transform="matrix(1 0 0 1 713.448 723)">Data ready</text><text fill="#03234B" font-family="Arial,Arial_MSFontService,sans-serif" font-weight="400" font-size="64" transform="matrix(1 0 0 1 732.554 855)">Data read</text><path d="M1039 606 1160.27 606" stroke="#03234B" stroke-width="10.3125" stroke-miterlimit="8" fill="none" fill-rule="evenodd"/><path d="M0 0 0.000360892 99.9668" stroke="#03234B" stroke-width="10.3125" stroke-miterlimit="8" fill="none" fill-rule="evenodd" transform="matrix(1 0 0 -1 1161 605.967)"/><path d="M0 0 249.846 1.80807" stroke="#03234B" stroke-width="10.3125" stroke-miterlimit="8" fill="none" fill-rule="evenodd" transform="matrix(1 0 0 -1 1161 511.808)"/><path d="M0 0 0.000360892 99.9668" stroke="#03234B" stroke-width="10.3125" stroke-miterlimit="8" fill="none" fill-rule="evenodd" transform="matrix(1 0 0 -1 1410 611.967)"/><path d="M1410 606 2023.31 606" stroke="#03234B" stroke-width="10.3125" stroke-miterlimit="8" fill="none" fill-rule="evenodd"/><path d="M1039 745 1410.12 745" stroke="#E6007E" stroke-width="10.3125" stroke-miterlimit="8" fill="none" fill-rule="evenodd"/><path d="M0 0 0.000360892 99.9668" stroke="#E6007E" stroke-width="10.3125" stroke-miterlimit="8" fill="none" fill-rule="evenodd" transform="matrix(1 0 0 -1 1410 748.967)"/><path d="M1410 649 1968.31 649" stroke="#E6007E" stroke-width="10.3125" stroke-miterlimit="8" fill="none" fill-rule="evenodd"/><text fill="#03234B" font-family="Arial,Arial_MSFontService,sans-serif" font-weight="400" font-size="64" transform="matrix(1 0 0 1 1556.14 575)">Auto wait</text><path d="M0 0 0.000360892 98.5752" stroke="#E6007E" stroke-width="10.3125" stroke-miterlimit="8" fill="none" fill-rule="evenodd" transform="matrix(1 0 0 -1 1969 748.575)"/><path d="M1969 744 2301.25 744" stroke="#E6007E" stroke-width="10.3125" stroke-miterlimit="8" fill="none" fill-rule="evenodd"/><path d="M1039 864 1968.43 864" stroke="#00B050" stroke-width="10.3125" stroke-miterlimit="8" fill="none" fill-rule="evenodd"/><path d="M0 0 0.000360892 99.9668" stroke="#00B050" stroke-width="10.3125" stroke-miterlimit="8" fill="none" fill-rule="evenodd" transform="matrix(1 0 0 -1 1969 863.967)"/><path d="M0 0 0.000360892 99.9668" stroke="#00B050" stroke-width="10.3125" stroke-miterlimit="8" fill="none" fill-rule="evenodd" transform="matrix(1 0 0 -1 2024 865.967)"/><path d="M1969 769 2024 769" stroke="#00B050" stroke-width="10.3125" stroke-miterlimit="8" fill="none" fill-rule="evenodd"/><path d="M2024 857 2395.12 857" stroke="#00B050" stroke-width="10.3125" stroke-miterlimit="8" fill="none" fill-rule="evenodd"/><path d="M0 0 0.000360892 99.9668" stroke="#03234B" stroke-width="10.3125" stroke-miterlimit="8" fill="none" fill-rule="evenodd" transform="matrix(1 0 0 -1 2018 603.967)"/><path d="M2024 510 2294.25 510" stroke="#03234B" stroke-width="10.3125" stroke-miterlimit="8" fill="none" fill-rule="evenodd"/><path d="M0 0 0.000360892 99.9668" stroke="#03234B" stroke-width="10.3125" stroke-miterlimit="8" fill="none" fill-rule="evenodd" transform="matrix(1 0 0 -1 2294 609.967)"/><path d="M0 0 0.000360892 99.9668" stroke="#E6007E" stroke-width="10.3125" stroke-miterlimit="8" fill="none" fill-rule="evenodd" transform="matrix(1 0 0 -1 2301 743.967)"/><path d="M0 0 96.8382 0.000360892" stroke="#E6007E" stroke-width="10.3125" stroke-miterlimit="8" fill="none" fill-rule="evenodd" transform="matrix(1 0 0 -1 2298 645)"/><path d="M2031.46 809.255 2048.37 793.253 2048.31 793.309 2064.69 777.314 2064.61 777.395 2072.44 769.402 2072.36 769.481 2079.86 761.491 2079.77 761.593 2086.88 753.607 2086.77 753.736 2093.41 745.755 2093.28 745.916 2099.4 737.942 2099.25 738.143 2104.77 730.175 2104.61 730.424 2109.47 722.464 2109.3 722.772 2113.44 714.82 2113.26 715.198 2116.61 707.254 2116.44 707.712 2118.93 699.779 2118.79 700.322 2120.36 692.399 2120.28 693.023 2120.86 685.111 2120.85 685.783 2120.4 677.883 2120.47 678.515 2119.03 670.625 2119.16 671.18 2116.8 663.301 2116.97 663.773 2113.75 655.903 2113.93 656.294 2109.91 648.434 2110.09 648.753 2105.35 640.901 2105.52 641.16 2100.12 633.315 2100.28 633.523 2094.29 625.685 2094.42 625.852 2087.9 618.02 2088.02 618.153 2081.04 610.326 2081.14 610.432 2073.76 602.609 2073.84 602.691 2066.14 594.872 2066.24 594.968 2052.18 581.431 2059.33 574.002 2073.44 587.586 2081.23 595.494 2088.69 603.41 2095.77 611.357 2102.41 619.339 2108.55 627.364 2114.1 635.442 2119.02 643.583 2123.21 651.798 2126.61 660.098 2129.12 668.49 2130.67 676.974 2131.17 685.529 2130.54 694.092 2128.85 702.6 2126.21 711.034 2122.68 719.395 2118.37 727.689 2113.33 735.927 2107.65 744.119 2101.4 752.274 2094.64 760.398 2087.43 768.499 2079.85 776.579 2071.94 784.653 2055.48 800.716 2038.54 816.745ZM2048.87 592.498 2037.02 560 2070.13 570.022Z" fill="#00B050"/><path d="M0 0 96.8382 0.000360892" stroke="#03234B" stroke-width="10.3125" stroke-miterlimit="8" fill="none" fill-rule="evenodd" transform="matrix(1 0 0 -1 2289 610.001)"/></g></svg>