<svg width="660" height="884" xmlns="http://www.w3.org/2000/svg" xmlns:xlink="http://www.w3.org/1999/xlink" xml:space="preserve" overflow="hidden"><defs><clipPath id="clip0"><rect x="251" y="276" width="660" height="884"/></clipPath></defs><g clip-path="url(#clip0)" transform="translate(-251 -276)"><path d="M251 386.002C251 325.25 300.25 276 361.002 276L800.998 276C861.75 276 911 325.25 911 386.002L911 1050C911 1110.75 861.75 1160 800.998 1160L361.002 1160C300.25 1160 251 1110.75 251 1050Z" fill="#3CB4E6" fill-rule="evenodd" fill-opacity="0.501961"/><text fill="#FFFFFF" font-family="Arial,Arial_MSFontService,sans-serif" font-weight="400" font-size="83" transform="matrix(1 0 0 1 466.381 405)">Single</text><text fill="#FFFFFF" font-family="Arial,Arial_MSFontService,sans-serif" font-weight="400" font-size="83" transform="matrix(1 0 0 1 372.423 504)">Continuous</text><rect x="381" y="838" width="390" height="114" fill="#E6007E"/><text fill="#FFFFFF" font-family="Arial,Arial_MSFontService,sans-serif" font-weight="400" font-size="83" transform="matrix(1 0 0 1 495.595 925)">CHx</text><path d="M595.875 716 595.875 813.625 582.125 813.625 582.125 716ZM609.625 806.75 589 848 568.375 806.75Z" fill="#03234B"/><path d="M381 659C381 627.52 468.304 602 576 602 683.696 602 771 627.52 771 659 771 690.48 683.696 716 576 716 468.304 716 381 690.48 381 659Z" fill="#49B170" fill-rule="evenodd"/><text fill="#FFFFFF" font-family="Arial,Arial_MSFontService,sans-serif" font-weight="400" font-size="83" transform="matrix(1 0 0 1 488.72 689)">Start</text><path d="M589 953 589 1030" stroke="#03234B" stroke-width="13.75" stroke-miterlimit="8" fill="none" fill-rule="evenodd"/><path d="M0 0 285.859 0.000360892" stroke="#03234B" stroke-width="13.75" stroke-miterlimit="8" fill="none" fill-rule="evenodd" transform="matrix(-1 0 0 1 588.858 1030)"/><path d="M0 0 0.000360892 259.871" stroke="#03234B" stroke-width="13.75" stroke-miterlimit="8" fill="none" fill-rule="evenodd" transform="matrix(1 0 0 -1 303 1029.87)"/><path d="M303 763.125 554.483 763.125 554.483 776.875 303 776.875ZM547.608 749.375 588.858 770 547.608 790.625Z" fill="#03234B"/></g></svg>