<svg width="662" height="1455" xmlns="http://www.w3.org/2000/svg" xmlns:xlink="http://www.w3.org/1999/xlink" xml:space="preserve" overflow="hidden"><defs><clipPath id="clip0"><rect x="251" y="120" width="662" height="1455"/></clipPath></defs><g clip-path="url(#clip0)" transform="translate(-251 -120)"><path d="M251 230.021C251 169.258 300.258 120 361.021 120L801.092 120C861.855 120 911.113 169.258 911.113 230.021L911.113 1464.98C911.113 1525.74 861.855 1575 801.092 1575L361.021 1575C300.258 1575 251 1525.74 251 1464.98Z" fill="#3CB4E6" fill-rule="evenodd" fill-opacity="0.501961"/><text fill="#FFFFFF" font-family="Arial,Arial_MSFontService,sans-serif" font-weight="400" font-size="83" transform="matrix(1 0 0 1 475.548 249)">Scan: </text><text fill="#FFFFFF" font-family="Arial,Arial_MSFontService,sans-serif" font-weight="400" font-size="83" transform="matrix(1 0 0 1 372.423 348)">Continuous </text><text fill="#FFFFFF" font-family="Arial,Arial_MSFontService,sans-serif" font-weight="400" font-size="83" transform="matrix(1 0 0 1 322.006 447)">(multi</text><text fill="#FFFFFF" font-family="Arial,Arial_MSFontService,sans-serif" font-weight="400" font-size="83" transform="matrix(1 0 0 1 523.673 447)">-</text><text fill="#FFFFFF" font-family="Arial,Arial_MSFontService,sans-serif" font-weight="400" font-size="83" transform="matrix(1 0 0 1 551.173 447)">channel </text><text fill="#FFFFFF" font-family="Arial,Arial_MSFontService,sans-serif" font-weight="400" font-size="83" transform="matrix(1 0 0 1 404.506 546)">repeated)</text><rect x="381" y="848" width="416" height="104" fill="#E6007E"/><text fill="#FFFFFF" font-family="Arial,Arial_MSFontService,sans-serif" font-weight="400" font-size="83" transform="matrix(1 0 0 1 508.589 930)">CHx</text><path d="M595.875 701 595.875 813.625 582.125 813.625 582.125 701ZM609.625 806.75 589 848 568.375 806.75Z" fill="#03234B"/><path d="M381 644.5C381 613.296 468.304 588 576 588 683.696 588 771 613.296 771 644.5 771 675.704 683.696 701 576 701 468.304 701 381 675.704 381 644.5Z" fill="#49B170" fill-rule="evenodd"/><text fill="#FFFFFF" font-family="Arial,Arial_MSFontService,sans-serif" font-weight="400" font-size="83" transform="matrix(1 0 0 1 488.72 675)">Start</text><rect x="381" y="1030" width="416" height="104" fill="#E6007E"/><text fill="#FFFFFF" font-family="Arial,Arial_MSFontService,sans-serif" font-weight="400" font-size="83" transform="matrix(1 0 0 1 547.547 1112)">…</text><path d="M595.875 952 595.875 995.625 582.125 995.625 582.125 952ZM609.625 988.75 589 1030 568.375 988.75Z" fill="#03234B"/><rect x="381" y="1212" width="416" height="105" fill="#E6007E"/><text fill="#FFFFFF" font-family="Arial,Arial_MSFontService,sans-serif" font-weight="400" font-size="83" transform="matrix(1 0 0 1 506.297 1295)">CHn</text><path d="M595.875 1134 595.875 1175.62 582.125 1175.62 582.125 1134ZM609.625 1168.75 589 1210 568.375 1168.75Z" fill="#03234B"/><path d="M595.875 1315 595.875 1357.62 582.125 1357.62 582.125 1315ZM609.625 1350.75 589 1392 568.375 1350.75Z" fill="#03234B"/><path d="M0 0 285.859 0.000360892" stroke="#03234B" stroke-width="13.75" stroke-miterlimit="8" fill="none" fill-rule="evenodd" transform="matrix(-1 0 0 1 588.858 1393)"/><path d="M303 763.125 554.483 763.125 554.483 776.875 303 776.875ZM547.608 749.375 588.858 770 547.608 790.625Z" fill="#03234B"/><path d="M0 0 0.000360892 623.691" stroke="#03234B" stroke-width="13.75" stroke-miterlimit="8" fill="none" fill-rule="evenodd" transform="matrix(1 0 0 -1 303 1393.69)"/></g></svg>