<svg width="1342" height="723" xmlns="http://www.w3.org/2000/svg" xmlns:xlink="http://www.w3.org/1999/xlink" xml:space="preserve" overflow="hidden"><defs><clipPath id="clip0"><rect x="598" y="458" width="1342" height="723"/></clipPath></defs><g clip-path="url(#clip0)" transform="translate(-598 -458)"><rect x="1420" y="458" width="520" height="520" fill="#03234B"/><text fill="#FFFFFF" font-family="Arial,Arial_MSFontService,sans-serif" font-weight="700" font-size="92" transform="matrix(1 0 0 1 1449.73 752)">SAR</text><text fill="#FFFFFF" font-family="Arial,Arial_MSFontService,sans-serif" font-weight="700" font-size="92" transform="matrix(1 0 0 1 1665.76 752)">ADC</text><path d="M1420 978 1333 718 1420 458Z" fill="#03234B" fill-rule="evenodd"/><rect x="771" y="510" width="390" height="104" fill="#49B170"/><text fill="#FFFFFF" font-family="Arial,Arial_MSFontService,sans-serif" font-weight="400" font-size="83" transform="matrix(1 0 0 1 901.444 592)">IN1</text><rect x="771" y="822" width="390" height="104" fill="#49B170"/><text fill="#FFFFFF" font-family="Arial,Arial_MSFontService,sans-serif" font-weight="400" font-size="83" transform="matrix(1 0 0 1 901.444 904)">IN2</text><rect x="771" y="1030" width="390" height="104" fill="#8C0078"/><text fill="#FFFFFF" font-family="Arial,Arial_MSFontService,sans-serif" font-weight="400" font-size="83" transform="matrix(1 0 0 1 841.861 1112)">VREF</text><text fill="#FFFFFF" font-family="Arial,Arial_MSFontService,sans-serif" font-weight="400" font-size="83" transform="matrix(1 0 0 1 1061.86 1112)">-</text><path d="M1161 1082 1680.74 1082" stroke="#03234B" stroke-width="8.02083" stroke-miterlimit="8" fill="none" fill-rule="evenodd"/><path d="M1680.2 1081.95 1680 978" stroke="#03234B" stroke-width="8.02083" stroke-miterlimit="8" fill="none" fill-rule="evenodd"/><path d="M1161 874 1446.86 874.001" stroke="#03234B" stroke-width="8.02083" stroke-miterlimit="8" fill="none" fill-rule="evenodd"/><path d="M1161 562 1446.86 562" stroke="#03234B" stroke-width="8.02083" stroke-miterlimit="8" fill="none" fill-rule="evenodd"/><path d="M647.875 562 647.875 839.471 634.125 839.471 634.125 562ZM661.625 832.596 641 873.846 620.375 832.596Z" fill="#03234B"/><text fill="#03234B" font-family="Arial,Arial_MSFontService,sans-serif" font-weight="400" font-size="73" transform="matrix(1 0 0 1 673.772 753)">Uadc</text><text fill="#03234B" font-family="Arial,Arial_MSFontService,sans-serif" font-weight="400" font-size="73" transform="matrix(1 0 0 1 844.501 753)">=Vin1 </text><text fill="#03234B" font-family="Arial,Arial_MSFontService,sans-serif" font-weight="400" font-size="73" transform="matrix(1 0 0 1 1052.86 753)">–</text><text fill="#03234B" font-family="Arial,Arial_MSFontService,sans-serif" font-weight="400" font-size="73" transform="matrix(1 0 0 1 1114.16 753)">Vin2</text></g></svg>