<svg width="662" height="1715" xmlns="http://www.w3.org/2000/svg" xmlns:xlink="http://www.w3.org/1999/xlink" xml:space="preserve" overflow="hidden"><defs><clipPath id="clip0"><rect x="251" y="120" width="662" height="1715"/></clipPath></defs><g clip-path="url(#clip0)" transform="translate(-251 -120)"><path d="M251 230.003C251 169.25 300.25 120 361.003 120L800.997 120C861.75 120 911 169.25 911 230.003L911 1725C911 1785.75 861.75 1835 800.997 1835L361.003 1835C300.25 1835 251 1785.75 251 1725Z" fill="#3CB4E6" fill-rule="evenodd" fill-opacity="0.501961"/><text fill="#FFFFFF" font-family="Arial,Arial_MSFontService,sans-serif" font-weight="400" font-size="83" transform="matrix(1 0 0 1 322.006 249)">Discontinuous </text><text fill="#FFFFFF" font-family="Arial,Arial_MSFontService,sans-serif" font-weight="400" font-size="83" transform="matrix(1 0 0 1 477.84 348)">mode</text><rect x="381" y="666" width="416" height="104" fill="#E6007E"/><text fill="#FFFFFF" font-family="Arial,Arial_MSFontService,sans-serif" font-weight="400" font-size="83" transform="matrix(1 0 0 1 508.589 748)">CHx</text><path d="M595.875 519 595.875 631.625 582.125 631.625 582.125 519ZM609.625 624.75 589 666 568.375 624.75Z" fill="#03234B"/><path d="M381 462.5C381 431.296 474.125 406 589 406 703.875 406 797 431.296 797 462.5 797 493.704 703.875 519 589 519 474.125 519 381 493.704 381 462.5Z" fill="#49B170" fill-rule="evenodd"/><text fill="#FFFFFF" font-family="Arial,Arial_MSFontService,sans-serif" font-weight="400" font-size="83" transform="matrix(1 0 0 1 501.714 493)">Start</text><path d="M595.875 770 595.875 813.625 582.125 813.625 582.125 770ZM609.625 806.75 589 848 568.375 806.75Z" fill="#03234B"/><rect x="381" y="1030" width="416" height="105" fill="#E6007E"/><text fill="#FFFFFF" font-family="Arial,Arial_MSFontService,sans-serif" font-weight="400" font-size="83" transform="matrix(1 0 0 1 547.547 1113)">…</text><path d="M595.875 952 595.875 993.625 582.125 993.625 582.125 952ZM609.625 986.75 589 1028 568.375 986.75Z" fill="#03234B"/><path d="M595.875 1134 595.875 1175.62 582.125 1175.62 582.125 1134ZM609.625 1168.75 589 1210 568.375 1168.75Z" fill="#03234B"/><path d="M0 0 285.859 0.000360892" stroke="#03234B" stroke-width="13.75" stroke-miterlimit="8" fill="none" fill-rule="evenodd" transform="matrix(-1 0 0 1 588.858 1757)"/><path d="M303 456.125 346.586 456.125 346.586 469.875 303 469.875ZM339.711 442.375 380.961 463 339.711 483.625Z" fill="#03234B"/><path d="M0 0 0.000360892 1299.36" stroke="#03234B" stroke-width="13.75" stroke-miterlimit="8" fill="none" fill-rule="evenodd" transform="matrix(1 0 0 -1 303 1757.36)"/><path d="M381 904.5C381 873.296 474.125 848 589 848 703.875 848 797 873.296 797 904.5 797 935.704 703.875 961 589 961 474.125 961 381 935.704 381 904.5Z" fill="#49B170" fill-rule="evenodd"/><text fill="#FFFFFF" font-family="Arial,Arial_MSFontService,sans-serif" font-weight="400" font-size="50" transform="matrix(1 0 0 1 477.078 923)">Start/Stop</text><path d="M381 1268.5C381 1237.3 474.125 1212 589 1212 703.875 1212 797 1237.3 797 1268.5 797 1299.7 703.875 1325 589 1325 474.125 1325 381 1299.7 381 1268.5Z" fill="#49B170" fill-rule="evenodd"/><text fill="#FFFFFF" font-family="Arial,Arial_MSFontService,sans-serif" font-weight="400" font-size="50" transform="matrix(1 0 0 1 477.078 1287)">Start/Stop</text><rect x="381" y="1393" width="416" height="106" fill="#E6007E"/><text fill="#FFFFFF" font-family="Arial,Arial_MSFontService,sans-serif" font-weight="400" font-size="83" transform="matrix(1 0 0 1 506.297 1477)">CHn</text><path d="M595.875 1315 595.875 1357.62 582.125 1357.62 582.125 1315ZM609.625 1350.75 589 1392 568.375 1350.75Z" fill="#03234B"/><path d="M595.875 1497 595.875 1539.62 582.125 1539.62 582.125 1497ZM609.625 1532.75 589 1574 568.375 1532.75Z" fill="#03234B"/><path d="M381 1622.5C381 1591.3 474.125 1566 589 1566 703.875 1566 797 1591.3 797 1622.5 797 1653.7 703.875 1679 589 1679 474.125 1679 381 1653.7 381 1622.5Z" fill="#49B170" fill-rule="evenodd"/><text fill="#FFFFFF" font-family="Arial,Arial_MSFontService,sans-serif" font-weight="400" font-size="83" transform="matrix(1 0 0 1 504.006 1653)">Stop</text><path d="M595.875 1679 595.875 1721.62 582.125 1721.62 582.125 1679ZM609.625 1714.75 589 1756 568.375 1714.75Z" fill="#03234B"/></g></svg>