<svg width="1299" height="1204" xmlns="http://www.w3.org/2000/svg" xmlns:xlink="http://www.w3.org/1999/xlink" xml:space="preserve" overflow="hidden"><defs><clipPath id="clip0"><rect x="901" y="293" width="1299" height="1204"/></clipPath></defs><g clip-path="url(#clip0)" transform="translate(-901 -293)"><rect x="901" y="302" width="1299" height="1195" fill="#03234B" fill-opacity="0.501961"/><text fill="#FFFFFF" font-family="Arial,Arial_MSFontService,sans-serif" font-weight="400" font-size="83" transform="matrix(1 0 0 1 1417.4 398)">STM32</text><rect x="1420" y="458" width="520" height="520" fill="#03234B"/><text fill="#FFFFFF" font-family="Arial,Arial_MSFontService,sans-serif" font-weight="700" font-size="92" transform="matrix(1 0 0 1 1449.73 752)">SAR</text><text fill="#FFFFFF" font-family="Arial,Arial_MSFontService,sans-serif" font-weight="700" font-size="92" transform="matrix(1 0 0 1 1665.76 752)">ADC</text><path d="M1420 978 1333 718 1420 458Z" fill="#03234B" fill-rule="evenodd"/><path d="M1161 562 1446.86 562" stroke="#03234B" stroke-width="13.75" stroke-miterlimit="8" fill="none" fill-rule="evenodd"/><rect x="953" y="1056" width="701" height="233" fill="#FFD200"/><text fill="#FFFFFF" font-family="Arial,Arial_MSFontService,sans-serif" font-weight="400" font-size="83" transform="matrix(1 0 0 1 1071.97 1154)">Temperature </text><text fill="#FFFFFF" font-family="Arial,Arial_MSFontService,sans-serif" font-weight="400" font-size="83" transform="matrix(1 0 0 1 1179.68 1253)">sensor</text><path d="M1161 562 1161 1055.76" stroke="#03234B" stroke-width="13.75" stroke-miterlimit="8" fill="none" fill-rule="evenodd"/></g></svg>