<svg width="660" height="1273" xmlns="http://www.w3.org/2000/svg" xmlns:xlink="http://www.w3.org/1999/xlink" xml:space="preserve" overflow="hidden"><defs><clipPath id="clip0"><rect x="251" y="302" width="660" height="1273"/></clipPath></defs><g clip-path="url(#clip0)" transform="translate(-251 -302)"><path d="M251 412.002C251 351.25 300.25 302 361.002 302L800.998 302C861.75 302 911 351.25 911 412.002L911 1465C911 1525.75 861.75 1575 800.998 1575L361.002 1575C300.25 1575 251 1525.75 251 1465Z" fill="#3CB4E6" fill-rule="evenodd" fill-opacity="0.501961"/><text fill="#FFFFFF" font-family="Arial,Arial_MSFontService,sans-serif" font-weight="400" font-size="83" transform="matrix(1 0 0 1 354.09 431)">Scan </text><text fill="#FFFFFF" font-family="Arial,Arial_MSFontService,sans-serif" font-weight="400" font-size="83" transform="matrix(1 0 0 1 564.923 431)">–</text><text fill="#FFFFFF" font-family="Arial,Arial_MSFontService,sans-serif" font-weight="400" font-size="83" transform="matrix(1 0 0 1 633.673 431)">multi </text><text fill="#FFFFFF" font-family="Arial,Arial_MSFontService,sans-serif" font-weight="400" font-size="83" transform="matrix(1 0 0 1 436.59 530)">channel</text><rect x="381" y="782" width="390" height="113" fill="#E6007E"/><text fill="#FFFFFF" font-family="Arial,Arial_MSFontService,sans-serif" font-weight="400" font-size="83" transform="matrix(1 0 0 1 495.595 869)">CHx</text><path d="M595.875 701 595.875 743.625 582.125 743.625 582.125 701ZM609.625 736.75 589 778 568.375 736.75Z" fill="#03234B"/><path d="M381 644.5C381 613.296 468.304 588 576 588 683.696 588 771 613.296 771 644.5 771 675.704 683.696 701 576 701 468.304 701 381 675.704 381 644.5Z" fill="#49B170" fill-rule="evenodd"/><text fill="#FFFFFF" font-family="Arial,Arial_MSFontService,sans-serif" font-weight="400" font-size="83" transform="matrix(1 0 0 1 488.72 675)">Start</text><path d="M381 1424C381 1392.52 468.304 1367 576 1367 683.696 1367 771 1392.52 771 1424 771 1455.48 683.696 1481 576 1481 468.304 1481 381 1455.48 381 1424Z" fill="#49B170" fill-rule="evenodd"/><text fill="#FFFFFF" font-family="Arial,Arial_MSFontService,sans-serif" font-weight="400" font-size="83" transform="matrix(1 0 0 1 491.012 1455)">Stop</text><rect x="381" y="980" width="390" height="113" fill="#E6007E"/><text fill="#FFFFFF" font-family="Arial,Arial_MSFontService,sans-serif" font-weight="400" font-size="83" transform="matrix(1 0 0 1 534.554 1067)">…</text><path d="M595.875 900 595.875 941.625 582.125 941.625 582.125 900ZM609.625 934.75 589 976 568.375 934.75Z" fill="#03234B"/><rect x="381" y="1176" width="390" height="113" fill="#E6007E"/><text fill="#FFFFFF" font-family="Arial,Arial_MSFontService,sans-serif" font-weight="400" font-size="83" transform="matrix(1 0 0 1 493.304 1263)">CHn</text><path d="M595.875 1096 595.875 1137.62 582.125 1137.62 582.125 1096ZM609.625 1130.75 589 1172 568.375 1130.75Z" fill="#03234B"/><path d="M595.875 1289 595.875 1331.63 582.125 1331.63 582.125 1289ZM609.625 1324.75 589 1366 568.375 1324.75Z" fill="#03234B"/></g></svg>