<svg width="660" height="858" xmlns="http://www.w3.org/2000/svg" xmlns:xlink="http://www.w3.org/1999/xlink" xml:space="preserve" overflow="hidden"><defs><clipPath id="clip0"><rect x="251" y="302" width="660" height="858"/></clipPath></defs><g clip-path="url(#clip0)" transform="translate(-251 -302)"><path d="M251 412.002C251 351.25 300.25 302 361.002 302L800.998 302C861.75 302 911 351.25 911 412.002L911 1050C911 1110.75 861.75 1160 800.998 1160L361.002 1160C300.25 1160 251 1110.75 251 1050Z" fill="#3CB4E6" fill-rule="evenodd" fill-opacity="0.501961"/><text fill="#FFFFFF" font-family="Arial,Arial_MSFontService,sans-serif" font-weight="400" font-size="83" transform="matrix(1 0 0 1 466.381 431)">Single</text><rect x="381" y="692" width="390" height="113" fill="#E6007E"/><text fill="#FFFFFF" font-family="Arial,Arial_MSFontService,sans-serif" font-weight="400" font-size="83" transform="matrix(1 0 0 1 495.595 779)">CHx</text><path d="M595.875 612 595.875 653.625 582.125 653.625 582.125 612ZM609.625 646.75 589 688 568.375 646.75Z" fill="#03234B"/><path d="M381 555C381 523.52 468.304 498 576 498 683.696 498 771 523.52 771 555 771 586.48 683.696 612 576 612 468.304 612 381 586.48 381 555Z" fill="#49B170" fill-rule="evenodd"/><text fill="#FFFFFF" font-family="Arial,Arial_MSFontService,sans-serif" font-weight="400" font-size="83" transform="matrix(1 0 0 1 488.72 585)">Start</text><path d="M381 934.5C381 903.296 468.304 878 576 878 683.696 878 771 903.296 771 934.5 771 965.704 683.696 991 576 991 468.304 991 381 965.704 381 934.5Z" fill="#49B170" fill-rule="evenodd"/><text fill="#FFFFFF" font-family="Arial,Arial_MSFontService,sans-serif" font-weight="400" font-size="83" transform="matrix(1 0 0 1 491.012 965)">Stop</text><path d="M595.875 801 595.875 843.625 582.125 843.625 582.125 801ZM609.625 836.75 589 878 568.375 836.75Z" fill="#03234B"/></g></svg>