<svg width="1646" height="350" xmlns="http://www.w3.org/2000/svg" xmlns:xlink="http://www.w3.org/1999/xlink" xml:space="preserve" overflow="hidden"><g transform="translate(-588 -439)"><rect x="641" y="458" width="234" height="78" fill="#E6007E"/><text fill="#FFFFFF" font-family="Arial,Arial_MSFontService,sans-serif" font-weight="400" font-size="64" transform="matrix(1 0 0 1 693.547 520)">CH1</text><rect x="875" y="458" width="234" height="78" fill="#49B170"/><text fill="#FFFFFF" font-family="Arial,Arial_MSFontService,sans-serif" font-weight="400" font-size="64" transform="matrix(1 0 0 1 927.431 520)">CH2</text><rect x="1109.5" y="458.5" width="233" height="78.0001" stroke="#021735" stroke-width="4.58333" stroke-miterlimit="8" fill="#03234B"/><text fill="#FFFFFF" font-family="Arial,Arial_MSFontService,sans-serif" font-weight="400" font-size="64" transform="matrix(1 0 0 1 1161.32 520)">CH8</text><rect x="1343" y="458" width="234" height="78" fill="#E6007E"/><text fill="#FFFFFF" font-family="Arial,Arial_MSFontService,sans-serif" font-weight="400" font-size="64" transform="matrix(1 0 0 1 1395.54 520)">CH1</text><rect x="1576" y="458" width="234" height="78" fill="#FFD200"/><text fill="#FFFFFF" font-family="Arial,Arial_MSFontService,sans-serif" font-weight="400" font-size="64" transform="matrix(1 0 0 1 1629.08 520)">CH3</text><path d="M748.146 547 748.146 620.286 745.854 620.286 745.854 547ZM760.75 615.702 747 643.202 733.25 615.702Z" fill="#03234B"/><text fill="#03234B" font-family="Arial,Arial_MSFontService,sans-serif" font-weight="400" font-size="55" transform="matrix(1 0 0 1 621.797 683)">2.5 cycles</text><path d="M996.146 551 996.146 675.304 993.855 675.304 993.854 551ZM1008.75 670.721 995.001 698.221 981.25 670.721Z" fill="#03234B"/><text fill="#03234B" font-family="Arial,Arial_MSFontService,sans-serif" font-weight="400" font-size="55" transform="matrix(1 0 0 1 870.056 738)">6.5 cycles</text><path d="M1230.15 551 1230.15 624.286 1227.85 624.286 1227.85 551ZM1242.75 619.702 1229 647.202 1215.25 619.702Z" fill="#03234B"/><text fill="#03234B" font-family="Arial,Arial_MSFontService,sans-serif" font-weight="400" font-size="55" transform="matrix(1 0 0 1 1103.94 687)">47.5 cycles</text><path d="M1464.15 551 1464.15 679.286 1461.85 679.286 1461.85 551ZM1476.75 674.702 1463 702.202 1449.25 674.702Z" fill="#03234B"/><text fill="#03234B" font-family="Arial,Arial_MSFontService,sans-serif" font-weight="400" font-size="55" transform="matrix(1 0 0 1 1337.82 742)">2.5 cycles</text><path d="M1698.15 551 1698.15 624.286 1695.85 624.286 1695.85 551ZM1710.75 619.702 1697 647.202 1683.25 619.702Z" fill="#03234B"/><text fill="#03234B" font-family="Arial,Arial_MSFontService,sans-serif" font-weight="400" font-size="55" transform="matrix(1 0 0 1 1571.71 687)">24.5 cycles</text><path d="M1867 497 2226.15 497" stroke="#03234B" stroke-width="13.75" stroke-miterlimit="8" stroke-dasharray="13.75 13.75" fill="none" fill-rule="evenodd"/></g></svg>